<svg width="41" height="41" viewBox="0 0 41 41" fill="none" xmlns="http://www.w3.org/2000/svg">
<path d="M39.3003 30.7002C38.1003 29.7002 30.7002 25.0002 29.5002 25.3002C29.0002 25.4002 28.5001 25.8002 27.4001 27.2002C26.8001 27.9335 26.2003 28.6002 25.6003 29.2002C24.4003 28.8669 23.2669 28.4335 22.2002 27.9002C18.0002 25.9002 14.5002 22.4002 12.5002 18.2002C11.9669 17.1335 11.5335 16.0002 11.2002 14.8002C11.8002 14.2002 12.4669 13.6002 13.2002 13.0002C14.6002 11.9002 15.0003 11.4002 15.1003 10.9002C15.4003 9.6002 10.7002 2.30019 9.7002 1.10019C9.2002 0.600193 8.80029 0.200195 8.30029 0.200195C6.90029 0.200195 0.200195 8.50019 0.200195 9.50019C0.200195 9.60019 0.300196 18.2002 11.2002 29.2002C22.2002 40.1002 30.8001 40.2002 30.9001 40.2002C31.9001 40.2002 40.2002 33.5002 40.2002 32.1002C40.2002 31.6002 39.8003 31.2002 39.3003 30.7002Z" fill="#FEFEFE"/>
<path d="M30.2004 18.8004H33.0005C33.0005 12.5004 27.9006 7.40039 21.6006 7.40039V10.2004C26.3006 10.2004 30.2004 14.1004 30.2004 18.8004Z" fill="#FEFEFE"/>
<path d="M37.3005 18.8002H40.2004C40.2004 8.50019 31.9006 0.200195 21.6006 0.200195V3.10019C30.3006 3.10019 37.3005 10.1002 37.3005 18.8002Z" fill="#FEFEFE"/>
</svg>
