<svg width="155" height="60" viewBox="0 0 155 60" fill="none" xmlns="http://www.w3.org/2000/svg">
<path d="M72.7998 11.8C72.8998 13.4 74.1997 14.5 76.1997 14.5C77.8997 14.5 79.0997 13.8 79.0997 12.5C79.0997 11.1 77.6998 10.8 74.8998 10.3C72.1998 9.8 69.6997 8.9 69.6997 5.5C69.6997 2.6 72.0998 0.5 75.8998 0.5C79.7998 0.5 82.1998 2.6 82.2998 5.7H78.7998C78.6998 4.3 77.5998 3.4 75.8998 3.4C74.3998 3.4 73.2998 4 73.2998 5.3C73.2998 6.6 74.5998 6.9 77.2998 7.4C80.0998 7.9 82.6997 8.8 82.5997 12.1C82.5997 15.2 80.0997 17.3 76.1997 17.3C71.9997 17.3 69.2998 15.1 69.2998 11.8H72.7998Z" fill="#070F73"/>
<path fill-rule="evenodd" clip-rule="evenodd" d="M84 11.2004C84 7.40039 86.5 4.90039 90.3 4.90039C93.9 4.90039 96.4 7.20039 96.4 10.7004C96.4 11.1004 96.4 11.5004 96.3 11.9004H87.5V12.0004C87.6 13.8004 88.7 14.8004 90.4 14.8004C91.7 14.8004 92.6 14.2004 92.9 13.1004H96.2C95.8 15.5004 93.7 17.3004 90.5 17.3004C86.5 17.3004 84 14.9004 84 11.2004ZM93 9.70039C92.8 8.20039 91.8 7.40039 90.3 7.40039C88.8 7.40039 87.8 8.30039 87.6 9.70039H93Z" fill="#070F73"/>
<path d="M110.1 10.5004V17.2004H106.7V10.8004C106.7 8.70039 105.9 7.70039 104.3 7.70039C102.5 7.70039 101.5 8.90039 101.5 11.0004V17.2004H98.2002V5.10039H101.1L101.4 6.60039C102.2 5.60039 103.3 4.90039 105.2 4.90039C107.8 4.90039 110.1 6.30039 110.1 10.5004Z" fill="#070F73"/>
<path d="M111.9 1.9C111.9 0.8 112.7 0 113.8 0C114.9 0 115.8 0.8 115.8 1.9C115.8 3 114.9 3.8 113.8 3.8C112.7 3.8 111.9 3 111.9 1.9ZM112.2 5.1H115.5V17.2H112.2V5.1Z" fill="#070F73"/>
<path fill-rule="evenodd" clip-rule="evenodd" d="M117.3 11.1004C117.3 7.40039 119.9 4.90039 123.7 4.90039C127.6 4.90039 130.1 7.40039 130.1 11.1004C130.1 14.9004 127.6 17.3004 123.7 17.3004C119.9 17.3004 117.3 14.9004 117.3 11.1004ZM126.8 11.1004C126.8 9.10039 125.6 7.60039 123.7 7.60039C121.9 7.60039 120.7 9.10039 120.7 11.1004C120.7 13.2004 121.9 14.6004 123.7 14.6004C125.6 14.6004 126.8 13.2004 126.8 11.1004Z" fill="#070F73"/>
<path d="M139.4 5.09961V8.09961H138.1C136.1 8.09961 135.3 9.39961 135.3 11.1996V17.1996H132V5.09961H135L135.3 6.89961C136 5.79961 136.9 5.09961 138.8 5.09961H139.4Z" fill="#070F73"/>
<path d="M143.3 13.2004C143.4 14.2004 144.3 15.0004 146 15.0004C147.4 15.0004 148.2 14.5004 148.2 13.7004C148.2 12.7004 147.4 12.6004 145.4 12.3004C142.6 12.0004 140.4 11.4004 140.4 8.90039C140.4 6.40039 142.5 4.90039 145.6 4.90039C148.9 4.90039 151.1 6.30039 151.3 8.80039H148.1C148 7.80039 147.1 7.30039 145.7 7.30039C144.4 7.30039 143.6 7.70039 143.6 8.50039C143.6 9.40039 144.6 9.50039 146.4 9.70039C149.2 10.0004 151.5 10.7004 151.5 13.4004C151.5 15.8004 149.2 17.3004 145.9 17.3004C142.6 17.3004 140.3 15.8004 140.1 13.2004H143.3Z" fill="#070F73"/>
<path d="M72.7998 33.0998C72.8998 34.6998 74.1997 35.8998 76.1997 35.8998C77.8997 35.8998 79.0997 35.0998 79.0997 33.7998C79.0997 32.4998 77.6998 32.1998 74.8998 31.5998C72.1998 31.0998 69.6997 30.1998 69.6997 26.8998C69.6997 23.8998 72.0998 21.7998 75.8998 21.7998C79.7998 21.7998 82.1998 23.8998 82.2998 26.9998H78.7998C78.6998 25.6998 77.5998 24.6998 75.8998 24.6998C74.3998 24.6998 73.2998 25.2998 73.2998 26.5998C73.2998 27.8998 74.5998 28.1998 77.2998 28.6998C80.0998 29.2998 82.6997 30.0998 82.5997 33.3998C82.5997 36.4998 80.0997 38.6998 76.1997 38.6998C71.9997 38.6998 69.2998 36.3998 69.2998 33.0998H72.7998Z" fill="#070F73"/>
<path fill-rule="evenodd" clip-rule="evenodd" d="M96.4 35.7002V38.5002H94.7C93 38.5002 92.5 37.7002 92.5 36.5002C91.7 37.9002 90.4 38.7002 88.5 38.7002C85.9 38.7002 84 37.4002 84 35.1002C84 32.5002 86 31.1002 89.6 31.1002H92V30.5002C92 29.4002 91.2 28.7002 89.8 28.7002C88.5 28.7002 87.7 29.3002 87.5 30.2002H84.3C84.5 27.8002 86.7 26.2002 89.9 26.2002C93.3 26.2002 95.3 27.8002 95.3 30.7002V35.0002C95.3 35.6002 95.5 35.7002 96.1 35.7002H96.4ZM91.9 33.3002H89.5C88.1 33.3002 87.3 33.8002 87.3 34.9002C87.3 35.7002 88 36.3002 89.1 36.3002C90.8 36.3002 91.9 35.2002 91.9 33.5002V33.3002Z" fill="#070F73"/>
<path d="M96 26.4004H99.6L102.5 35.1004L105.4 26.4004H108.9L104.5 38.5004H100.4L96 26.4004Z" fill="#070F73"/>
<path d="M109.7 23.1998C109.7 22.0998 110.6 21.2998 111.7 21.2998C112.8 21.2998 113.6 22.0998 113.6 23.1998C113.6 24.2998 112.8 25.0998 111.7 25.0998C110.6 25.0998 109.7 24.2998 109.7 23.1998ZM110 26.3998H113.4V38.4998H110V26.3998Z" fill="#070F73"/>
<path d="M127.5 31.8002V38.5002H124.2V32.1002C124.2 30.1002 123.4 29.0002 121.7 29.0002C120 29.0002 119 30.2002 119 32.3002V38.5002H115.7V26.4002H118.6L118.9 27.9002C119.6 27.0002 120.8 26.2002 122.6 26.2002C125.2 26.2002 127.5 27.6002 127.5 31.8002Z" fill="#070F73"/>
<path fill-rule="evenodd" clip-rule="evenodd" d="M138.8 26.4002H141.7V38.2002C141.7 41.2002 139.9 43.4002 135.2 43.4002C131.9 43.4002 129.5 41.9002 129.4 39.0002H132.7C133 40.2002 134 40.9002 135.5 40.9002C137.4 40.9002 138.5 39.9002 138.5 38.1002V36.8002C137.7 37.8002 136.5 38.5002 134.8 38.5002C131.5 38.5002 129.1 36.1002 129.1 32.3002C129.1 28.6002 131.5 26.2002 134.7 26.2002C136.5 26.2002 137.7 27.0002 138.5 28.1002L138.8 26.4002ZM138.5 32.4002C138.5 30.3002 137.3 28.9002 135.5 28.9002C133.7 28.9002 132.5 30.3002 132.5 32.3002C132.5 34.4002 133.7 35.8002 135.5 35.8002C137.3 35.8002 138.5 34.4002 138.5 32.4002Z" fill="#070F73"/>
<path d="M146.7 34.5002C146.8 35.6002 147.7 36.3002 149.3 36.3002C150.7 36.3002 151.6 35.8002 151.6 35.0002C151.6 34.0002 150.7 33.9002 148.8 33.7002C145.9 33.3002 143.7 32.7002 143.7 30.2002C143.7 27.8002 145.8 26.2002 149 26.2002C152.2 26.2002 154.5 27.7002 154.6 30.1002H151.4C151.4 29.2002 150.4 28.6002 149.1 28.6002C147.8 28.6002 146.9 29.1002 146.9 29.8002C146.9 30.8002 148 30.8002 149.7 31.1002C152.5 31.3002 154.8 32.0002 154.8 34.7002C154.8 37.1002 152.6 38.7002 149.3 38.7002C145.9 38.7002 143.6 37.1002 143.5 34.5002H146.7Z" fill="#070F73"/>
<path d="M69 43.2998H82.2V46.3998H77.4V59.8998H73.8V46.3998H69V43.2998Z" fill="#070F73"/>
<path fill-rule="evenodd" clip-rule="evenodd" d="M81.2002 53.7996C81.2002 49.9996 83.7003 47.5996 87.4003 47.5996C91.1003 47.5996 93.5002 49.7996 93.6002 53.3996C93.6002 53.7996 93.5002 54.1996 93.5002 54.4996H84.7002V54.6996C84.7002 56.3996 85.8002 57.4996 87.5002 57.4996C88.9002 57.4996 89.8002 56.8996 90.1002 55.6996H93.4003C93.0003 58.0996 90.9002 59.9996 87.7002 59.9996C83.6002 59.9996 81.2002 57.5996 81.2002 53.7996ZM90.2002 52.3996C90.0002 50.8996 89.0003 50.0996 87.4003 50.0996C86.0003 50.0996 84.9002 50.8996 84.7002 52.3996H90.2002Z" fill="#070F73"/>
<path fill-rule="evenodd" clip-rule="evenodd" d="M107.3 56.9996V59.8996H105.6C103.9 59.8996 103.4 58.9996 103.4 57.8996C102.5 59.1996 101.3 59.9996 99.3999 59.9996C96.7999 59.9996 94.8999 58.6996 94.8999 56.3996C94.8999 53.8996 96.7999 52.3996 100.5 52.3996H102.9V51.7996C102.9 50.6996 102.1 49.9996 100.7 49.9996C99.3998 49.9996 98.4999 50.5996 98.3999 51.4996H95.1998C95.3998 49.0996 97.5999 47.5996 100.8 47.5996C104.2 47.5996 106.2 49.0996 106.2 51.9996V56.2996C106.2 56.8996 106.4 56.9996 107 56.9996H107.3ZM102.8 54.5996H100.4C98.9999 54.5996 98.1998 55.1996 98.1998 56.1996C98.1998 56.9996 98.8999 57.5996 99.9999 57.5996C101.7 57.5996 102.8 56.4996 102.8 54.7996V54.5996Z" fill="#070F73"/>
<path d="M127.7 52.9005V59.9005H124.3V53.1005C124.3 51.3005 123.7 50.3005 122.2 50.3005C120.8 50.3005 119.8 51.4005 119.8 53.2005V59.9005H116.5V53.1005C116.5 51.3005 115.8 50.3005 114.4 50.3005C112.9 50.3005 112 51.4005 112 53.2005V59.9005H108.6V47.7005H111.5L111.9 49.2005C112.6 48.3005 113.6 47.6005 115.4 47.6005C116.9 47.5005 118.3 48.1005 119.1 49.6005C119.9 48.3005 121.3 47.6005 123.2 47.6005C125.7 47.6005 127.7 49.0005 127.7 52.9005Z" fill="#070F73"/>
<path d="M60 0V30H45V25.5H34.5V15H25.5V25.5H15V30C6.8 30 0 23.3 0 15C0 10.9 1.70002 7.1 4.40002 4.4C7.10002 1.7 10.9 0 15 0H60Z" fill="#2B99FF"/>
<path d="M60 45C60 53.3 53.3 60 45 60H0V30H15V34.5H25.5V45H34.5V34.5H45V30C49.2 30 52.9 31.7 55.6 34.4C58.4 37.1 60 40.9 60 45Z" fill="#6B32DB"/>
</svg>
