<svg width="6" height="7" viewBox="0 0 6 7" fill="none" xmlns="http://www.w3.org/2000/svg">
<path d="M2.30054 4.60059V4.50049C2.30054 4.10049 2.33372 3.80059 2.40039 3.60059C2.46706 3.40059 2.53392 3.23392 2.60059 3.10059C2.73392 2.96725 2.90059 2.8672 3.10059 2.80054C3.30059 2.6672 3.46725 2.53372 3.60059 2.40039C3.73392 2.26706 3.80054 2.10039 3.80054 1.90039C3.80054 1.70039 3.76711 1.56715 3.70044 1.50049C3.63377 1.36715 3.53372 1.26711 3.40039 1.20044C3.26706 1.20044 3.13382 1.20044 3.00049 1.20044C2.86715 1.20044 2.73392 1.20044 2.60059 1.20044C2.46725 1.26711 2.3672 1.36715 2.30054 1.50049C2.23387 1.63382 2.20044 1.76706 2.20044 1.90039H0.900391C0.900391 1.50039 1.00044 1.16706 1.20044 0.900391C1.40044 0.633724 1.66715 0.43387 2.00049 0.300537C2.26715 0.167204 2.60049 0.100586 3.00049 0.100586C3.40049 0.100586 3.76725 0.167204 4.10059 0.300537C4.43392 0.43387 4.6672 0.633724 4.80054 0.900391C5.00054 1.16706 5.10059 1.4672 5.10059 1.80054C5.10059 2.20054 5.03372 2.50044 4.90039 2.70044C4.70039 2.96711 4.46711 3.20039 4.20044 3.40039C4.00044 3.46706 3.8672 3.53392 3.80054 3.60059C3.6672 3.73392 3.56715 3.86715 3.50049 4.00049C3.43382 4.13382 3.40039 4.30049 3.40039 4.50049V4.60059H2.30054ZM2.90039 6.60059C2.70039 6.60059 2.53372 6.53372 2.40039 6.40039C2.26706 6.26706 2.20044 6.10039 2.20044 5.90039C2.20044 5.70039 2.26706 5.53372 2.40039 5.40039C2.53372 5.26706 2.70039 5.20044 2.90039 5.20044C3.16706 5.20044 3.36715 5.26706 3.50049 5.40039C3.63382 5.53372 3.70044 5.70039 3.70044 5.90039C3.70044 6.10039 3.63382 6.26706 3.50049 6.40039C3.36715 6.53372 3.16706 6.60059 2.90039 6.60059Z" fill="#FEFEFE"/>
</svg>
