<svg xml:space="preserve" viewBox="0 0 100 100" y="0" x="0" xmlns="http://www.w3.org/2000/svg" id="圖層_1" version="1.1" preserveAspectRatio="xMidYMid" width="200" height="200" xmlns:xlink="http://www.w3.org/1999/xlink" style="margin-top:0px;margin-right:0px;margin-bottom:0px;margin-left:0px;display:block;shape-rendering:auto;background-position-x:0%;background-position-y:0%;background-size:auto;background-origin:padding-box;background-clip:border-box;background:scroll rgb(255, 255, 255) none  repeat;width:200px;height:200px;;animation:none"><g class="ldl-scale" style="transform-origin:50px 50px;transform:matrix(0.8, 0, 0, 0.8, 0, 0);;animation:none"><g class="ldl-ani"><g class="ldl-layer"><g class="ldl-ani" style="transform:matrix(1, 0, 0, 1, 0, 0);transform-box:view-box;animation-duration:1s;animation-timing-function:linear;animation-delay:-0.625s;animation-iteration-count:infinite;animation-direction:normal;animation-fill-mode:forwards;animation-play-state:paused;animation-name:animate;animation-timeline:auto;animation-range-start:normal;animation-range-end:normal;transform-origin:50px 50px;;animation:none"><path stroke-miterlimit="10" stroke-width="4" fill="none" stroke="#77a4bd" stroke-linejoin="round" stroke-linecap="round" d="M45.592 10C70.118 10 90 29.882 90 54.408" style="stroke-width:4px;stroke:rgb(255, 255, 255);fill:none;;animation:none"></path></g></g>
<g class="ldl-layer"><g class="ldl-ani" style="transform:matrix(1, 0, 0, 1, 0, 0);transform-box:view-box;animation-duration:1s;animation-timing-function:linear;animation-delay:-0.75s;animation-iteration-count:infinite;animation-direction:normal;animation-fill-mode:forwards;animation-play-state:paused;animation-name:animate;animation-timeline:auto;animation-range-start:normal;animation-range-end:normal;transform-origin:50px 50px;;animation:none"><path stroke-miterlimit="10" stroke-width="4" fill="none" stroke="#77a4bd" stroke-linejoin="round" stroke-linecap="round" d="M45.592 22.688c17.519 0 31.72 14.202 31.72 31.72" style="stroke-width:4px;stroke:rgb(255, 255, 255);fill:none;;animation:none"></path></g></g>
<g class="ldl-layer"><g class="ldl-ani" style="transform:matrix(1, 0, 0, 1, 0, 0);transform-box:view-box;animation-duration:1s;animation-timing-function:linear;animation-delay:-0.875s;animation-iteration-count:infinite;animation-direction:normal;animation-fill-mode:forwards;animation-play-state:paused;animation-name:animate;animation-timeline:auto;animation-range-start:normal;animation-range-end:normal;transform-origin:50px 50px;;animation:none"><path stroke-miterlimit="10" stroke-width="4" fill="none" stroke="#77a4bd" stroke-linejoin="round" stroke-linecap="round" d="M64.624 54.408c0-10.511-8.521-19.032-19.032-19.032" style="stroke-width:4px;stroke:rgb(255, 255, 255);fill:none;;animation:none"></path></g></g>
<g class="ldl-layer"><g class="ldl-ani" style="transform:matrix(1, 0, 0, 1, 0, 0);transform-box:view-box;animation-duration:1s;animation-timing-function:linear;animation-delay:-1s;animation-iteration-count:infinite;animation-direction:normal;animation-fill-mode:forwards;animation-play-state:paused;animation-name:animate;animation-timeline:auto;animation-range-start:normal;animation-range-end:normal;transform-origin:50px 50px;;animation:none"><path stroke-miterlimit="10" stroke-width="4" fill="none" stroke="#333" d="M73.659 69.554l-3.324-3.324c-3.255-3.255-8.552-3.255-11.808 0l-2.155 2.155a1.496 1.496 0 0 1-2.001.122 154.448 154.448 0 0 1-22.878-22.879 1.495 1.495 0 0 1 .121-2l2.155-2.155a8.296 8.296 0 0 0 2.446-5.904 8.29 8.29 0 0 0-2.446-5.904l-3.324-3.324c-3.256-3.256-8.553-3.256-11.808 0l-5.387 5.387c-3.596 3.595-4.287 9.17-1.681 13.557 10.669 17.96 25.185 32.476 43.145 43.145A11.153 11.153 0 0 0 60.418 90c2.874 0 5.714-1.111 7.854-3.251l5.387-5.387c1.577-1.577 2.446-3.673 2.446-5.904s-.869-4.327-2.446-5.904z" style="stroke-width:4px;stroke:rgb(255, 255, 255);fill:none;;animation:none"></path></g></g>
<metadata xmlns:d="https://loading.io/stock/"></metadata></g></g>
<STYLE type="text/css">@keyframes animate { 0.00% {animation-timing-function: cubic-bezier(0.33,0.00,0.67,0.00);transform: translate(0.00px,0.00px) rotate(0.00deg) scale(1.00, 1.00) skew(0deg, 0.00deg) ;opacity: 1.00;}50.00% {animation-timing-function: cubic-bezier(0.33,0.00,0.67,0.00);transform: translate(0.00px,0.00px) rotate(0.00deg) ;}100.00% {animation-timing-function: cubic-bezier(0.33,0.00,0.67,0.00);transform: translate(0.00px,0.00px) rotate(0.00deg) ;} }</STYLE><!-- [ldio] generated by https://loading.io --></svg>